# xmcd
#
# Track frame offsets:
#	150
#	22657
#	47462
#	70730
#	87105
#	102612
#	127377
#	183857
#	202332
#	220555
#	238407
#	257530
#	273912
#
# Disc length: 4257 seconds
#
# Revision: 1
# Processed by: cddbd v1.5.1PL0 Copyright (c) Steve Scherf et al.
# Submitted via: EasyCDDAExtractor 7.1.0.1
#
DISCID=b8109f0d
DTITLE=Lynn White - Take Your Time
DYEAR=1995
DGENRE=Soul
TTITLE0=Love And Happiness
TTITLE1=Don't Let Success
TTITLE2=I Made A Mistake
TTITLE3=Sorr
TTITLE4=Take Your Time
TTITLE5=Eight Men And Four Women
TTITLE6=Medley-God Blessed Our Love-When A Man Loves a Woman-That's Strong My 
TTITLE6=Love Is
TTITLE7=Yes I'm Ready
TTITLE8=He'll Leave You For Her
TTITLE9=Love Me Like You Do
TTITLE10=Your Woman Is Home Tonight
TTITLE11=Slow And Easy
TTITLE12=Yes I'm Ready
EXTD=YEAR: 1995
EXTT0=
EXTT1=
EXTT2=
EXTT3=
EXTT4=
EXTT5=
EXTT6=
EXTT7=
EXTT8=
EXTT9=
EXTT10=
EXTT11=
EXTT12=
PLAYORDER=
